<mxfile host="Electron" modified="2024-06-02T03:57:39.751Z" agent="Mozilla/5.0 (Windows NT 10.0; Win64; x64) AppleWebKit/537.36 (KHTML, like Gecko) draw.io/24.4.8 Chrome/124.0.6367.207 Electron/30.0.6 Safari/537.36" etag="68gu5xcbxZsCldsa9qV0" version="24.4.8" type="device">
  <diagram name="第 1 页" id="YyFhkHPj7me7TQYODi5u">
    <mxGraphModel dx="756" dy="530" grid="0" gridSize="1" guides="1" tooltips="1" connect="1" arrows="1" fold="1" page="1" pageScale="1" pageWidth="827" pageHeight="1169" math="1" shadow="0">
      <root>
        <mxCell id="0" />
        <mxCell id="1" parent="0" />
        <mxCell id="ZsDTS69j95GdB3u_Ns6Y-2" value="" style="ellipse;whiteSpace=wrap;html=1;aspect=fixed;dashed=1;" vertex="1" parent="1">
          <mxGeometry x="211" y="144" width="400" height="400" as="geometry" />
        </mxCell>
        <mxCell id="ZsDTS69j95GdB3u_Ns6Y-40" value="" style="endArrow=none;html=1;rounded=0;" edge="1" parent="1">
          <mxGeometry width="50" height="50" relative="1" as="geometry">
            <mxPoint x="176" y="344" as="sourcePoint" />
            <mxPoint x="296" y="144" as="targetPoint" />
          </mxGeometry>
        </mxCell>
        <mxCell id="ZsDTS69j95GdB3u_Ns6Y-42" value="" style="endArrow=none;html=1;rounded=0;" edge="1" parent="1">
          <mxGeometry width="50" height="50" relative="1" as="geometry">
            <mxPoint x="296" y="144" as="sourcePoint" />
            <mxPoint x="526" y="144" as="targetPoint" />
          </mxGeometry>
        </mxCell>
        <mxCell id="ZsDTS69j95GdB3u_Ns6Y-44" value="" style="endArrow=none;html=1;rounded=0;" edge="1" parent="1">
          <mxGeometry width="50" height="50" relative="1" as="geometry">
            <mxPoint x="296" y="544" as="sourcePoint" />
            <mxPoint x="176" y="344" as="targetPoint" />
          </mxGeometry>
        </mxCell>
        <mxCell id="ZsDTS69j95GdB3u_Ns6Y-45" value="" style="endArrow=none;html=1;rounded=0;" edge="1" parent="1">
          <mxGeometry width="50" height="50" relative="1" as="geometry">
            <mxPoint x="296" y="544" as="sourcePoint" />
            <mxPoint x="526" y="544" as="targetPoint" />
          </mxGeometry>
        </mxCell>
        <mxCell id="ZsDTS69j95GdB3u_Ns6Y-49" value="" style="endArrow=none;html=1;rounded=0;" edge="1" parent="1">
          <mxGeometry width="50" height="50" relative="1" as="geometry">
            <mxPoint x="646" y="344" as="sourcePoint" />
            <mxPoint x="526" y="144" as="targetPoint" />
          </mxGeometry>
        </mxCell>
        <mxCell id="ZsDTS69j95GdB3u_Ns6Y-50" value="" style="endArrow=none;html=1;rounded=0;" edge="1" parent="1">
          <mxGeometry width="50" height="50" relative="1" as="geometry">
            <mxPoint x="526" y="544" as="sourcePoint" />
            <mxPoint x="646" y="344" as="targetPoint" />
          </mxGeometry>
        </mxCell>
        <mxCell id="ZsDTS69j95GdB3u_Ns6Y-58" value="" style="endArrow=none;html=1;rounded=0;" edge="1" parent="1">
          <mxGeometry width="50" height="50" relative="1" as="geometry">
            <mxPoint x="296" y="544" as="sourcePoint" />
            <mxPoint x="526" y="144" as="targetPoint" />
          </mxGeometry>
        </mxCell>
        <mxCell id="ZsDTS69j95GdB3u_Ns6Y-59" value="" style="endArrow=classic;html=1;rounded=0;startArrow=classic;startFill=1;endFill=1;" edge="1" parent="1">
          <mxGeometry width="50" height="50" relative="1" as="geometry">
            <mxPoint x="526" y="544" as="sourcePoint" />
            <mxPoint x="296" y="144" as="targetPoint" />
          </mxGeometry>
        </mxCell>
        <mxCell id="ZsDTS69j95GdB3u_Ns6Y-60" value="" style="endArrow=none;html=1;rounded=0;" edge="1" parent="1">
          <mxGeometry width="50" height="50" relative="1" as="geometry">
            <mxPoint x="176" y="344" as="sourcePoint" />
            <mxPoint x="646" y="344" as="targetPoint" />
          </mxGeometry>
        </mxCell>
        <mxCell id="ZsDTS69j95GdB3u_Ns6Y-63" value="" style="endArrow=classic;html=1;rounded=0;" edge="1" parent="1">
          <mxGeometry width="50" height="50" relative="1" as="geometry">
            <mxPoint x="411" y="344" as="sourcePoint" />
            <mxPoint x="535" y="281" as="targetPoint" />
          </mxGeometry>
        </mxCell>
        <mxCell id="ZsDTS69j95GdB3u_Ns6Y-64" value="" style="endArrow=none;html=1;rounded=0;dashed=1;dashPattern=1 4;" edge="1" parent="1">
          <mxGeometry width="50" height="50" relative="1" as="geometry">
            <mxPoint x="498" y="344" as="sourcePoint" />
            <mxPoint x="534" y="282" as="targetPoint" />
          </mxGeometry>
        </mxCell>
        <mxCell id="ZsDTS69j95GdB3u_Ns6Y-65" value="" style="endArrow=none;html=1;rounded=0;dashed=1;dashPattern=1 4;" edge="1" parent="1">
          <mxGeometry width="50" height="50" relative="1" as="geometry">
            <mxPoint x="447" y="281" as="sourcePoint" />
            <mxPoint x="533" y="281" as="targetPoint" />
          </mxGeometry>
        </mxCell>
        <mxCell id="ZsDTS69j95GdB3u_Ns6Y-66" value="" style="endArrow=none;html=1;rounded=0;curved=1;" edge="1" parent="1">
          <mxGeometry width="50" height="50" relative="1" as="geometry">
            <mxPoint x="451" y="344" as="sourcePoint" />
            <mxPoint x="447" y="326" as="targetPoint" />
            <Array as="points">
              <mxPoint x="457" y="333" />
            </Array>
          </mxGeometry>
        </mxCell>
        <mxCell id="ZsDTS69j95GdB3u_Ns6Y-67" value="$$\theta$$" style="text;html=1;align=center;verticalAlign=middle;whiteSpace=wrap;rounded=0;" vertex="1" parent="1">
          <mxGeometry x="459" y="326" width="12" height="14" as="geometry" />
        </mxCell>
        <mxCell id="ZsDTS69j95GdB3u_Ns6Y-68" value="&lt;font style=&quot;font-size: 24px;&quot;&gt;Ⅰ&lt;/font&gt;" style="text;html=1;align=center;verticalAlign=middle;whiteSpace=wrap;rounded=0;" vertex="1" parent="1">
          <mxGeometry x="611" y="217" width="22" height="30" as="geometry" />
        </mxCell>
        <mxCell id="ZsDTS69j95GdB3u_Ns6Y-69" value="&lt;font style=&quot;font-size: 24px;&quot;&gt;Ⅱ&lt;/font&gt;" style="text;html=1;align=center;verticalAlign=middle;whiteSpace=wrap;rounded=0;" vertex="1" parent="1">
          <mxGeometry x="403" y="98" width="22" height="30" as="geometry" />
        </mxCell>
        <mxCell id="ZsDTS69j95GdB3u_Ns6Y-70" value="&lt;font style=&quot;font-size: 24px;&quot;&gt;Ⅲ&lt;/font&gt;" style="text;html=1;align=center;verticalAlign=middle;whiteSpace=wrap;rounded=0;" vertex="1" parent="1">
          <mxGeometry x="198" y="217" width="22" height="30" as="geometry" />
        </mxCell>
        <mxCell id="ZsDTS69j95GdB3u_Ns6Y-71" value="&lt;font style=&quot;font-size: 24px;&quot;&gt;Ⅳ&lt;/font&gt;" style="text;html=1;align=center;verticalAlign=middle;whiteSpace=wrap;rounded=0;" vertex="1" parent="1">
          <mxGeometry x="198" y="447" width="22" height="30" as="geometry" />
        </mxCell>
        <mxCell id="ZsDTS69j95GdB3u_Ns6Y-72" value="&lt;font style=&quot;font-size: 24px;&quot;&gt;Ⅴ&lt;/font&gt;" style="text;html=1;align=center;verticalAlign=middle;whiteSpace=wrap;rounded=0;" vertex="1" parent="1">
          <mxGeometry x="403" y="563" width="22" height="30" as="geometry" />
        </mxCell>
        <mxCell id="ZsDTS69j95GdB3u_Ns6Y-73" value="&lt;span style=&quot;font-size: 24px;&quot;&gt;Ⅵ&lt;/span&gt;" style="text;html=1;align=center;verticalAlign=middle;whiteSpace=wrap;rounded=0;" vertex="1" parent="1">
          <mxGeometry x="611" y="447" width="22" height="30" as="geometry" />
        </mxCell>
        <mxCell id="ZsDTS69j95GdB3u_Ns6Y-74" value="$$\vec{V}(100)$$" style="text;html=1;align=center;verticalAlign=middle;whiteSpace=wrap;rounded=0;" vertex="1" parent="1">
          <mxGeometry x="648" y="329" width="60" height="30" as="geometry" />
        </mxCell>
        <mxCell id="ZsDTS69j95GdB3u_Ns6Y-75" value="$$\vec{V}(110)$$" style="text;html=1;align=center;verticalAlign=middle;whiteSpace=wrap;rounded=0;" vertex="1" parent="1">
          <mxGeometry x="502" y="111" width="60" height="30" as="geometry" />
        </mxCell>
        <mxCell id="ZsDTS69j95GdB3u_Ns6Y-76" value="$$\vec{V}(010)$$" style="text;html=1;align=center;verticalAlign=middle;whiteSpace=wrap;rounded=0;" vertex="1" parent="1">
          <mxGeometry x="266" y="111" width="60" height="30" as="geometry" />
        </mxCell>
        <mxCell id="ZsDTS69j95GdB3u_Ns6Y-77" value="$$\vec{V}(011)$$" style="text;html=1;align=center;verticalAlign=middle;whiteSpace=wrap;rounded=0;" vertex="1" parent="1">
          <mxGeometry x="119" y="329" width="60" height="30" as="geometry" />
        </mxCell>
        <mxCell id="ZsDTS69j95GdB3u_Ns6Y-78" value="$$\vec{V}(001)$$" style="text;html=1;align=center;verticalAlign=middle;whiteSpace=wrap;rounded=0;" vertex="1" parent="1">
          <mxGeometry x="259" y="544" width="60" height="30" as="geometry" />
        </mxCell>
        <mxCell id="ZsDTS69j95GdB3u_Ns6Y-79" value="$$\vec{V}(101)$$" style="text;html=1;align=center;verticalAlign=middle;whiteSpace=wrap;rounded=0;" vertex="1" parent="1">
          <mxGeometry x="509" y="544" width="60" height="30" as="geometry" />
        </mxCell>
        <mxCell id="ZsDTS69j95GdB3u_Ns6Y-80" value="$$\vec{V}(000)$$" style="text;html=1;align=center;verticalAlign=middle;whiteSpace=wrap;rounded=0;" vertex="1" parent="1">
          <mxGeometry x="346" y="313" width="60" height="30" as="geometry" />
        </mxCell>
        <mxCell id="ZsDTS69j95GdB3u_Ns6Y-81" value="$$\vec{V}(111)$$" style="text;html=1;align=center;verticalAlign=middle;whiteSpace=wrap;rounded=0;" vertex="1" parent="1">
          <mxGeometry x="346" y="343" width="60" height="30" as="geometry" />
        </mxCell>
        <mxCell id="ZsDTS69j95GdB3u_Ns6Y-82" value="$$\vec{V}_{ref}$$" style="text;html=1;align=center;verticalAlign=middle;whiteSpace=wrap;rounded=0;" vertex="1" parent="1">
          <mxGeometry x="521" y="261" width="60" height="30" as="geometry" />
        </mxCell>
      </root>
    </mxGraphModel>
  </diagram>
</mxfile>
